<?xml version="1.0" encoding="utf-8"?>
<!-- Generator: Adobe Illustrator 23.0.3, SVG Export Plug-In . SVG Version: 6.00 Build 0)  -->
<svg version="1.1" id="Capa_1" xmlns="http://www.w3.org/2000/svg" xmlns:xlink="http://www.w3.org/1999/xlink" x="0px" y="0px"
	 viewBox="0 0 512 512" style="enable-background:new 0 0 512 512;" xml:space="preserve">
<style type="text/css">
	.st0{fill:#C0BCC1;}
	.st1{fill:#4B3F4E;}
	.st2{fill:#DBD9DC;}
	.st3{fill:#5D5360;}
	.st4{fill:#FFFFFF;}
</style>
<path class="st0" d="M240,115.7l-35.2-56.3c-2.6-4.1-0.9-9.7,3.6-11.6c114.1-48.3,215.8,8.5,290.9,101.4c3.4,4.3,5.3,9.6,5.3,15.1
	v151.9L240,115.7z"/>
<path class="st1" d="M386.3,161.1C381,99.7,359.1,58.6,344.6,37.5c-42.5-11.7-88.3-10-136.3,10.3c-4.5,1.9-6.2,7.5-3.6,11.6
	l35.2,56.3l111.4,84.4C373.9,195.6,388.2,184,386.3,161.1z"/>
<path class="st2" d="M320.1,90.7c0,0-48.1-15.1-112.2,33C172,150.7,44.2,263.9,12.8,292.1c-4.5,4-6.3,10.2-4.8,16
	c5,18.7,20.7,59.8,50.3,62.8c2.8,0.3,7.5-1.3,13.1-3.9l27.5,18.6c4.2,3,9.5,3.8,14.4,2.1c34.1-11.9,126.4-49.1,188.8-72.5
	c18.8,41.5,52,116.9,73.9,177.3c0,0,70.7-21.2,119.1-70.2c5.9-6,9.1-14.1,9.1-22.5V282.6c0-9.8-2.6-19.5-7.6-28
	C410.9,106.7,320.1,90.7,320.1,90.7z"/>
<path class="st3" d="M117.9,285.9c-36-10.1-45.9-37.3-47.9-44.5c-25.2,22.2-46.6,41.3-57.2,50.7c-4.5,4-6.3,10.2-4.8,16
	c5,18.7,20.7,59.8,50.3,62.8c2.8,0.3,7.5-1.3,13.1-3.9l27.5,18.6c4.2,3,9.5,3.8,14.4,2.1c17.7-6.2,51-19.1,87.6-33.4
	C199.3,342.9,188.1,305.6,117.9,285.9z"/>
<path class="st0" d="M270.3,25c-10.2,36-3.5,70.9,0,84.6c0.9,3.6,4.1,6.1,7.8,6.1H312c4.6,0,8.2-3.9,8-8.5
	c-2.3-62-29.7-80.6-42-85.8C274.9,20.1,271.3,21.7,270.3,25z"/>
<path class="st3" d="M198.5,238.6c-60.1-7.4-76.8-32.5-80.3-39.5c-6.2,5.4-12.5,10.9-18.7,16.3c16.8,38.8,58.7,48.6,64.9,49.9
	c67,14.3,77.5,58.5,79.2,72.3c14.7-5.7,29.1-11.3,42.6-16.4C284.7,286.8,263,246.6,198.5,238.6z"/>
<path class="st1" d="M240,215.9L240,215.9c-13.3,0-24.1-10.8-24.1-24.1v-8c0-13.3,10.8-24.1,24.1-24.1l0,0c13.3,0,24,10.8,24,24.1v8
	C264,205.1,253.2,215.9,240,215.9z"/>
<path class="st3" d="M240,159.8v28.1c0,6.6,5.4,12,12,12s12-5.4,12-12v-4C264,170.6,253.2,159.8,240,159.8z"/>
<circle class="st4" cx="240" cy="175.8" r="8"/>
<g>
	<path class="st3" d="M284.4,322c6.1-2.3,12.2-4.6,17.9-6.8c0.3,0.7,0.7,1.5,1,2.3c13.8-9.6,21.9-27.9,22.6-45
		c1.6-35.5-10.9-64-23.5-76.2C302.4,196.2,315,284,284.4,322z"/>
	<path class="st3" d="M504.5,357v-74.4c0-3-0.3-6-0.8-9c-32.1,79.9-96.9,125.9-154.9,149c5.5,13.3,10.9,26.8,16,39.9
		C415.9,441,467.8,407.1,504.5,357z"/>
</g>
<path class="st1" d="M416.7,71.5c16.2,73.6,10.4,130.5-6.1,173.5l42.6,32.3c19.2-36.4,32.7-82.7,35.4-140.9
	C466.6,111.1,442.5,88.9,416.7,71.5z"/>
<path class="st3" d="M333.6,386.2c49.3-18.1,114.2-66.8,142-165.6c-16.8-24.7-33.4-44.8-49.3-61.1c-1.9,110.1-62.4,167-109.6,187.8
	C322,359.4,327.7,372.5,333.6,386.2z"/>
<path d="M264,176.4c-4.1,0-7.5,3.4-7.5,7.5v8c0,9.1-7.4,16.6-16.6,16.6s-16.6-7.4-16.6-16.6v-8c0-9.1,7.4-16.6,16.6-16.6
	c4.1,0,7.5-3.4,7.5-7.5s-3.4-7.5-7.5-7.5c-17.4,0-31.5,14.2-31.5,31.5v8c0,17.4,14.2,31.5,31.5,31.5s31.5-14.2,31.5-31.5v-8
	C271.5,179.7,268.1,176.4,264,176.4z"/>
<path d="M42.3,310.8l-8,8c-2.9,2.9-2.9,7.7,0,10.6c1.5,1.5,3.4,2.2,5.3,2.2c1.9,0,3.8-0.7,5.3-2.2l8-8c2.9-2.9,2.9-7.7,0-10.6
	C49.9,307.9,45.2,307.9,42.3,310.8z"/>
<path d="M493.6,311.2c7.7-13.2,13.8-27,18.1-41c0,0,0,0,0-0.1c0-0.1,0.1-0.3,0.1-0.4c0-0.1,0.1-0.2,0.1-0.3c0-0.1,0-0.3,0.1-0.4
	c0-0.1,0-0.2,0-0.3c0-0.1,0-0.2,0-0.3c0-0.1,0-0.3,0-0.4c0-0.1,0-0.2,0-0.3c0-0.1,0-0.3,0-0.4c0-0.2,0-0.3-0.1-0.5
	c0-0.1,0-0.1,0-0.2c0-0.1-0.1-0.3-0.1-0.4c0-0.1,0-0.2-0.1-0.3c0-0.1-0.1-0.2-0.1-0.3c0-0.1-0.1-0.2-0.1-0.4c0-0.1-0.1-0.2-0.1-0.3
	c-0.1-0.1-0.1-0.3-0.2-0.4c0,0,0,0,0-0.1c-8.9-16.2-18-31-26.9-44.4c5.5-20.2,9.1-41.7,10.8-64.1c1.2,1.5,2.4,3,3.6,4.6
	c1.5,1.9,3.7,2.9,5.9,2.9c1.6,0,3.2-0.5,4.6-1.6c3.3-2.5,3.8-7.3,1.3-10.5c-35.9-46-74.9-80.1-116-101.5
	c-32.2-16.8-65.7-25.7-99.5-26.6c-11-9-20.7-10.8-21.6-10.9c-3.6-0.6-7.2,1.5-8.3,5c-0.8,2.5-1.6,5-2.3,7.5
	c-40.3,5.1-65.5,19.9-66.6,20.5c-1.8,1.1-3,2.8-3.5,4.8c-0.5,2-0.1,4.1,1.1,5.8l30.9,46.4c-6.3,4.2-13.3,9.4-21.3,15.8
	C168.9,145.3,40.1,257.5,7.8,286.5c-6.6,5.9-9.3,15-7,23.5c1.8,6.7,7,23.9,16.8,39.4c11.2,17.7,24.7,27.4,40,29c0.5,0,1,0.1,1.5,0.1
	c2.6,0,6.3-0.7,12.2-3.1l23.4,16.5c4,2.8,8.8,4.3,13.6,4.3c2.6,0,5.1-0.4,7.6-1.3c19.4-6.8,48.9-18.7,80.1-31.3
	c37.2-15,75.5-30.5,103.2-40c8.3,18.6,42.4,95.5,70,171.6c1.1,3,4,4.9,7,4.9c0.9,0,1.7-0.1,2.6-0.5c3.9-1.4,5.9-5.7,4.5-9.6
	c-2.8-7.7-5.7-15.4-8.6-23.1c12.3-6,61.4-31.3,101.5-67.7c3.1-2.8,3.3-7.5,0.5-10.6c-2.8-3.1-7.5-3.3-10.6-0.5
	c-36.9,33.5-83.3,58-96.8,64.7c-3.3-8.5-6.6-16.8-9.8-25c17.3-8.2,72-36.5,113-86.4c2.6-3.2,2.2-7.9-1-10.6c-3.2-2.6-7.9-2.2-10.6,1
	c-38,46.3-90,73.8-107,82c-3.4-8.5-6.8-16.7-10.1-24.5c11.8-4.9,41.5-19.2,71.7-49.3c22.4-22.2,40.4-48.5,53.7-78.2
	c3.4-7.5,6.4-15.3,9.1-23.2c6.7,10.5,12.7,20.7,18,30.1c-3.9,11.8-9.2,23.5-15.7,34.8c-2.1,3.6-0.9,8.2,2.7,10.3
	c1.2,0.7,2.5,1,3.8,1C489.7,314.9,492.2,313.6,493.6,311.2z M480.9,139c-0.8,22.7-3.5,44.3-8.1,64.6c-13.4-18.4-26.5-34-39-47
	c0.5-28.1-2.6-52.1-5.3-67.2C446.5,103.2,464,119.8,480.9,139z M410.5,76.5c0.8,3.1,7.2,29.5,8.1,65.1
	c-12.9-12.1-24.8-21.4-35.1-28.5c-28.2-19.5-49.7-26.6-58.2-28.9c-3.2-20.2-9.3-34.7-16.2-45.2c26.6,2.7,52.9,10.7,78.4,24
	C395.2,67,402.9,71.5,410.5,76.5z M210.8,54.4c8.9-4.1,25.8-10.8,48.5-14.2c-2.8,17.3-2.1,32.7-0.4,44.7c-4.4,1-11.4,3.5-21.5,9.3
	L210.8,54.4z M197.6,246.1c68.6,8.2,78.6,50,79.5,69.3c-8.8,3.2-18.2,6.8-28,10.7c-1.2-5.9-4.1-15.2-10.9-25.1
	c-18-26.7-49.2-38-72.3-42.9c-5.9-1.2-11.4-2.8-16.6-4.6c-3.9-1.4-8.2,0.7-9.6,4.6c-1.4,3.9,0.7,8.2,4.6,9.6c5.8,2,12,3.8,18.5,5.1
	c62.7,13.2,71,50.8,72.1,58.9c-9.7,3.8-19.6,7.8-29.6,11.9c-4.3-15.6-21-45.9-85-64c-32.3-9.2-39.9-30.9-41.2-35.9
	c5.5-4.8,11.2-9.8,17-14.8c2.6,5.5,7.8,13.7,17.7,21.8c1.4,1.2,3.1,1.7,4.8,1.7c2.2,0,4.3-0.9,5.8-2.7c2.6-3.2,2.2-7.9-1-10.6
	c-12.3-10.2-15-19.9-15.2-20.4c0-0.1-0.1-0.2-0.1-0.3c2.9-2.5,5.8-5,8.7-7.5C123.3,220.4,143,239.5,197.6,246.1z M111,380.6
	c-2.5,0.9-5.4,0.5-7.6-1.1l-16.8-11.8c4.4-2.5,9.5-5.6,15.5-9.3c15.7-9.9,29.5-19.7,30.1-20.1c3.4-2.4,4.2-7.1,1.7-10.5
	c-2.4-3.4-7.1-4.2-10.5-1.7c-25.3,18.1-57.1,37.4-64.2,37.4c0,0,0,0-0.1,0c-28.5-2.9-42.4-51.7-43.9-57.3c-0.8-3.1,0.2-6.3,2.6-8.5
	c9.6-8.6,27.7-24.6,49.3-43.4c4.9,11.4,17.7,30.8,49.2,39.7c21.9,6.2,51.2,17.8,66.6,38.1c5.5,7.2,7.6,13.4,8.4,17.1
	c-0.3,0.1-0.7,0.3-1,0.4C159.4,362.1,130.1,373.9,111,380.6z M455.8,255.3c-12.4,27.9-29.3,52.6-50.2,73.6
	c-28.5,28.5-56.9,42.1-67.5,46.6c-4-9.5-7.8-18.3-11.1-26c46-24.2,77.6-62,94-112.4c1.3-3.9-0.9-8.2-4.8-9.5
	c-3.9-1.3-8.2,0.9-9.5,4.8c-15.1,46.2-43.9,80.9-85.8,103.3c-3.3-7.5-5.9-13.4-7.6-17.3c23.3-9.8,38.5-25.1,45.2-45.5
	c17.3-52.9-30.2-120.6-32.2-123.4c-2.4-3.4-7.1-4.2-10.5-1.8c-3.4,2.4-4.2,7.1-1.8,10.5c0.5,0.6,45.2,64.3,30.2,110.1
	c-2.8,8.5-7.6,15.9-14.3,22.2c4.3-19.7,4.5-52.4-17-99.6c-1.7-3.8-6.2-5.4-9.9-3.7c-3.8,1.7-5.4,6.2-3.7,9.9
	c9.7,21.3,20.6,52.7,17.4,81.6c-1.8,16.6-7.6,24.9-7.9,25.3c-3.1,1.4-14.5,5.3-17,6.2c-1.3-13.2-6-30.2-19.5-45.6
	c-16.1-18.2-40.6-29.5-72.9-33.3c-54.4-6.5-68.7-26.2-71.1-30.2c35.5-30.7,69.1-59.3,84.2-71.4c28-22.4,43.5-28.3,49.2-29.9
	c1.6,6.4,3.1,10.3,3.3,10.8c1.5,3.8,5.9,5.7,9.7,4.2c3.8-1.5,5.7-5.9,4.2-9.7c-0.1-0.4-13.2-34.3-2.1-75.7
	c3.9,1.9,9.1,5.3,14.4,11.3c13.9,15.7,21.3,41.7,21.3,75.2c0,4.1,3.4,7.5,7.5,7.5s7.5-3.4,7.5-7.5c0-5.4-0.2-10.4-0.5-15.3
	c9.7,3.2,27.1,10.5,48.8,25.6c15.3,10.7,29.5,23.1,42.6,36.3c-0.4,12.2-1.6,25.1-4,38.2c-0.7,4.1,2,8,6.1,8.7
	c0.4,0.1,0.9,0.1,1.3,0.1c3.6,0,6.7-2.6,7.4-6.2c1.5-8.7,2.6-17.3,3.3-25.7c13,14.7,24.8,30.1,35.1,45.1
	C464.4,234,460.4,244.9,455.8,255.3z"/>
<path d="M508.7,350c-3.4-2.3-8.1-1.4-10.4,2c-2.9,4.3-6.2,8.6-9.8,12.9c-2.7,3.2-2.2,7.9,1,10.6c1.4,1.2,3.1,1.7,4.8,1.7
	c2.1,0,4.3-0.9,5.8-2.7c3.9-4.7,7.5-9.4,10.7-14.1C513,357,512.1,352.3,508.7,350z"/>
</svg>
