<?xml version="1.0" encoding="utf-8"?>
<!-- Generator: Adobe Illustrator 23.0.3, SVG Export Plug-In . SVG Version: 6.00 Build 0)  -->
<svg version="1.1" id="Layer_1" xmlns="http://www.w3.org/2000/svg" xmlns:xlink="http://www.w3.org/1999/xlink" x="0px" y="0px"
	 viewBox="0 0 512 512" style="enable-background:new 0 0 512 512;" xml:space="preserve">
<style type="text/css">
	.st0{fill:#DBD9DC;}
	.st1{fill:#E9D7C3;}
	.st2{fill:#FFFFFF;}
	.st3{fill:#4B3F4E;}
</style>
<path class="st0" d="M504,280c0,128.1-111,208-248,208S8,408.1,8,280S145.5,40,256,40S504,151.9,504,280z"/>
<path class="st1" d="M168,415.9c0,39.8,39.4,72,88,72s88-32.2,88-72H168z"/>
<path class="st2" d="M320,304c-24-40-40-48-64-48s-40,8-64,48c-20.6,34.3-38.1,102.3-24,120c32,40,80,16,88,16s56,24,88-16
	C358.1,406.3,340.6,338.3,320,304z"/>
<path class="st3" d="M256,360c-14.6,0-56,2.7-56,16c0,24,51.1,41.3,56,40c4.9,1.3,56-16,56-40C312,362.7,270.6,360,256,360z"/>
<g>
	<path class="st3" d="M40.1,156C25.6,140.2,16,115.2,16,92c0-37.6,28-72,56-72c26.5,0,38.4,36.7,50.1,56"/>
	<path class="st3" d="M471.9,156c14.6-15.8,24.1-40.8,24.1-64c0-37.6-28-72-56-72c-26.5,0-38.4,36.7-50.1,56"/>
	<path class="st3" d="M208,252c0-10.2-3.9-20.5-11.7-28.3c-15.6-15.6-40.9-15.6-56.6,0l-48,48c-15.6,15.6-15.6,40.9,0,56.6
		s40.9,15.6,56.6,0l43.7-43.7"/>
	<path class="st3" d="M304,252c0-10.2,3.9-20.5,11.7-28.3c15.6-15.6,40.9-15.6,56.6,0l48,48c15.6,15.6,15.6,40.9,0,56.6
		s-40.9,15.6-56.6,0L320,284.6"/>
</g>
<path d="M475.3,163.2c0.9-0.4,1.7-1,2.4-1.8c16-17.3,26.3-44.5,26.3-69.4c0-19.5-7-39.6-19.2-55c-12.5-15.9-28.8-25-44.8-25
	c-25.9,0-39.2,25.9-49.8,46.7c-1.5,3-3,5.9-4.5,8.6C343.4,37.1,297.3,20,256,20s-87.4,17.1-129.7,47.3c-1.4-2.7-2.9-5.6-4.5-8.6
	C111.2,37.9,97.9,12,72,12c-15.9,0-32.3,9.1-44.8,25C15,52.4,8,72.5,8,92c0,24.9,10.3,52.2,26.3,69.4c0.7,0.8,1.5,1.4,2.4,1.8
	C13,202.3,0,244.1,0,284c0,32.4,6.8,62.7,20.3,90.1c12.9,26.1,31.5,49.1,55.3,68.2C122,479.5,186.1,500,256,500s134-20.5,180.4-57.7
	c23.9-19.1,42.5-42.1,55.3-68.2c13.5-27.4,20.3-57.7,20.3-90.1C512,244.1,499,202.3,475.3,163.2z M404.4,66
	c9.1-17.8,19.5-38,35.6-38c24.2,0,48,31.7,48,64c0,20.7-8.4,43.3-21.3,57.8c-10-14.7-21.6-28.9-34.6-42.4c0-1.1,0-2.1,0-3.2
	c-0.1-12.5-0.2-26.7,7-40.4c2.1-3.9,0.5-8.7-3.4-10.8c-3.9-2.1-8.7-0.5-10.8,3.4c-6.5,12.4-8.3,24.7-8.7,35.7
	c-5.7-5.2-11.6-10.2-17.6-14.9C400.5,73.6,402.4,69.9,404.4,66z M24,92c0-32.3,23.8-64,48-64c16.1,0,26.5,20.2,35.6,38
	c2,3.9,3.9,7.6,5.8,11c-5.9,4.7-11.8,9.7-17.5,14.9c-0.5-11-2.3-23.2-8.8-35.6c-2.1-3.9-6.9-5.4-10.8-3.3s-5.4,6.9-3.3,10.8
	c7.3,13.7,7.2,27.9,7.1,40.4c0,1.1,0,2.1,0,3.2c-13,13.5-24.6,27.8-34.7,42.5C32.4,135.3,24,112.7,24,92z M256,483.9
	c-29.1,0-54.3-12.9-61.8-29.8c12.6,4.5,25.7,6.1,36.6,5.7c6.7-0.2,17.4-1.3,25.2-5.7c7.8,4.4,18.5,5.5,25.2,5.7c0.9,0,1.9,0,2.8,0
	c10.3,0,22.2-1.7,33.8-5.8C310.3,471.1,285.1,483.9,256,483.9z M255.9,412c-3.1-0.8-13.8-5.9-26-13.7c-14.7-9.4-20.2-15.6-21.5-18
	c1.3-1.1,5.9-3.9,19.2-6c10.3-1.7,21.8-2.3,28.5-2.3c6.7,0,18.2,0.6,28.5,2.3c13.3,2.2,17.8,4.9,19.2,6c-1.4,2.4-6.9,8.6-21.5,18
	c-12.2,7.8-23,12.8-26,13.7C256,412,256,412,255.9,412z M319.7,478c10.2-9.3,15.9-20.7,16.3-32.7c5.1-3.3,9.8-7.2,14-11.9
	c2.9-3.3,2.7-8.3-0.6-11.3s-8.3-2.7-11.3,0.6c-14.8,16.5-39.6,21.7-56.4,21.2c-9.1-0.3-14.9-2.1-17.7-3.6v-14.2
	c11.1-4.3,26.9-14.4,27.1-14.5C320,393,320,383.5,320,380c0-15.2-21.8-19.4-29-20.8c-12.2-2.3-26.4-3.2-35-3.2s-22.8,0.8-35,3.2
	c-7.2,1.4-29,5.6-29,20.8c0,3.6,0,13,28.9,31.6c0.2,0.1,16,10.2,27.1,14.5v14.2c-2.8,1.5-8.5,3.3-17.7,3.6
	c-16.8,0.5-41.6-4.7-56.4-21.2c-2.9-3.3-8-3.6-11.3-0.6s-3.6,8-0.6,11.3c4.2,4.7,8.9,8.6,14,11.9c0.4,12.1,6.1,23.4,16.3,32.7
	C85.9,457.1,16,383.1,16,284c0-57.5,29.2-119.6,80.2-170.4C145,65,204.8,36,256,36s111,29,159.8,77.6c51,50.8,80.2,112.9,80.2,170.4
	C496,383.1,426.1,457.1,319.7,478z"/>
<path d="M152,252c0,8.8,7.2,16,16,16s16-7.2,16-16s-7.2-16-16-16S152,243.2,152,252z"/>
<path d="M360,252c0-8.8-7.2-16-16-16s-16,7.2-16,16c0,8.8,7.2,16,16,16S360,260.8,360,252z"/>
<path d="M168,204c-12.8,0-24.9,5-33.9,14.1l-48,48C77,275.1,72,287.2,72,300s5,24.9,14.1,33.9c9.4,9.4,21.6,14,33.9,14
	s24.6-4.7,33.9-14l43.7-43.7c3.1-3.1,3.1-8.2,0-11.3c-3.1-3.1-8.2-3.1-11.3,0l-43.7,43.7c-12.5,12.5-32.8,12.5-45.3,0
	c-6-6-9.4-14.1-9.4-22.6s3.3-16.6,9.4-22.6l48-48c12.5-12.5,32.8-12.5,45.3,0c6,6,9.4,14.1,9.4,22.6c0,4.4,3.6,8,8,8h0
	c4.4,0,8-3.6,8-8c0-12.8-5-24.9-14.1-33.9C192.9,209,180.8,204,168,204z"/>
<path d="M377.9,218.1c-18.7-18.7-49.2-18.7-67.9,0C301,227.1,296,239.2,296,252c0,4.4,3.6,8,8,8h0c4.4,0,8-3.6,8-8
	c0-8.5,3.3-16.6,9.4-22.6c12.5-12.5,32.8-12.5,45.3,0l48,48c6,6,9.4,14.1,9.4,22.6s-3.3,16.6-9.4,22.6c-12.5,12.5-32.8,12.5-45.3,0
	l-43.7-43.7c-3.1-3.1-8.2-3.1-11.3,0c-3.1,3.1-3.1,8.2,0,11.3l43.7,43.7c9.4,9.4,21.6,14,33.9,14c12.3,0,24.6-4.7,33.9-14
	c9.1-9.1,14.1-21.1,14.1-33.9s-5-24.9-14.1-33.9L377.9,218.1z"/>
<circle class="st2" cx="171.9" cy="248" r="8"/>
<circle class="st2" cx="338.8" cy="248" r="8"/>
</svg>
