<?xml version="1.0" encoding="utf-8"?><!DOCTYPE svg PUBLIC "-//W3C//DTD SVG 1.1//EN" "http://www.w3.org/Graphics/SVG/1.1/DTD/svg11.dtd"><svg version="1.1" xmlns="http://www.w3.org/2000/svg" xmlns:xlink="http://www.w3.org/1999/xlink" x="0px" y="0px" viewBox="0 0 1000 1000" enable-background="new 0 0 1000 1000" xml:space="preserve"><g class="animal-color"><path d="M424.3,853.3h-11v59h59v-11C472.3,874.8,450.8,853.3,424.3,853.3z"/><path d="M527.8,912.3h59v-59h-11c-26.5,0-48,21.5-48,48V912.3L527.8,912.3z"/><path d="M278.7,318.5c-17.8,42.7-26.1,92.3-23.6,142.5c3,59,20.4,113.4,49,153.3c42.7,59.5,62.3,106.4,71.3,135.2c3.9,12.4,6.1,22.7,7.5,30.5c-11.7,4.4-21.7,11.9-29.2,22.3c-10.3,14.2-15.8,33.2-15.8,54.9v51.2c0,45,36.6,81.6,81.6,81.6h160.8c45,0,81.6-36.6,81.6-81.6v-51.2c0-21.8-5.5-40.8-15.8-54.9c-7.5-10.4-17.5-17.9-29.2-22.3c4.7-27.5,21.3-85.5,78.8-165.7c28.6-39.9,46-94.4,49-153.3c2.5-50.2-5.8-99.7-23.6-142.5c67.7-26.2,106.6-77.1,127.9-117.4c30.5-57.9,36.7-114.8,32.7-145.9C876.6,14.4,853.9,10,844.4,10c-1.4,0-2.9,0.1-4.3,0.3c-21.1,2.9-61.8,16.5-103.5,34.7c-27.8,12.1-77.8,35.8-100.6,58.6c-19.8,19.8-36.8,53.3-49.2,83.5c-0.4-0.1-0.8-0.3-1.2-0.4l38.6-164.5L598.6,19c-2.8-0.4-69.1-8.9-98.6-9h-0.3c-29.6,0.1-95.7,8.6-98.5,9l-25.5,3.3l38.6,164.6c-0.3,0.1-0.7,0.2-1,0.3c-12.5-30.3-29.4-63.7-49.2-83.5C341.2,80.8,291.2,57.1,263.5,45C221.7,26.8,181.1,13.2,160,10.3c-1.4-0.2-2.9-0.3-4.3-0.3c-9.5,0-32.2,4.4-37.4,45.2c-4,31.1,2.1,88.1,32.7,145.9C172.1,241.4,211,292.2,278.7,318.5z M437.1,80.8l44.9,90.7h36.1l44.4-90.2l-22.2,94.7l-10.7,45.4l-15.3,65.1h-29l-15.3-65.1L459.5,176L437.1,80.8z M164.6,58.5c43.7,10.7,141.3,52.6,166.7,78c14.6,14.6,31.8,47.1,47.2,89.2l8.8,24.1l23.1-11.2c4.7-2.3,9.6-4.4,14.6-6.3l23.6,100.6h102.6l23.6-100.7c5.1,1.9,10,4,14.8,6.3l23.1,11.2l8.8-24.1c15.4-42.1,32.6-74.6,47.2-89.2c25.4-25.4,123-67.2,166.7-78c2.7,16.5,1.1,55.3-17.7,100.3c-12.1,29.2-28.7,54.3-49.2,74.6c-23.9,23.7-52.7,40.1-85.5,48.7l-28.7,7.5l14.2,26.1c0.9,1.7,1.8,3.4,2.7,5.1c-21.3-12.8-47.1-22.4-76.3-22.4v46.4c50.9,0,90.3,46,101.6,60.6c0.2,1.5,0.4,3,0.5,4.5c-24.9-20.8-59.9-40.9-102.1-40.9v46.4c51.8,0,91.6,47.5,102.1,61.3c-4.8,42.7-18.6,82.2-38.9,110.6c-7.6,10.6-14.6,20.9-21,30.9c-2.2-2.6-4.5-5.2-7-7.9c-24.8-25.8-56-39.4-90.3-39.4v46.4c41.1,0,63.7,31.2,71.7,44.7c-2.2,4.2-4.3,8.4-6.3,12.4c-0.6-0.6-1.1-1.3-1.7-1.9c-16-16.4-37.8-24.8-64.9-24.8v46.4c14.2,0,24.4,3.4,31.4,10.5c9,9.1,10.9,22.5,11.3,28c-13.3,41.5-12.6,65.5-12.5,67.3l1,22.1H592c10,0,14.2,4,16.7,7.5c4.4,6.1,6.9,15.9,6.9,27.7v51.2c0,19.4-15.8,35.2-35.2,35.2H419.6c-19.4,0-35.2-15.8-35.2-35.2v-51.2c0-11.7,2.4-21.5,6.9-27.7c2.5-3.5,6.7-7.5,16.7-7.5h22.2l1-22.1c0.1-2.3,0.7-23.7-10.3-60.5c-0.8-2.7-1.6-5.3-2.5-8c0.6-7,3.1-18.7,10.7-26.4c6.6-6.8,16.4-10,30-10v-46.4c-33.5,0-53.4,13.6-64.1,25c-0.1,0.1-0.2,0.2-0.3,0.3c-2.4-4.9-4.9-9.8-7.6-14.7c9.2-14.6,31.5-41.9,69.9-41.9v-46.4c-34.2,0-65.4,13.6-90.3,39.4c-1.8,1.9-3.6,3.8-5.2,5.7c-6.2-9.5-12.7-19.1-19.6-28.8c-20.9-29.1-34.9-70.1-39.3-114.1c13.6-16.9,51.4-57.7,99.3-57.7v-46.4c-40.3,0-74.1,18.4-98.7,38.1c0.1-1.2,0.3-2.5,0.5-3.7c4.7-6.2,13.3-16.5,24.9-26.8c23.9-21.1,48.5-31.8,73.3-31.8v-46.4c-27.5,0-51.7,8.5-72,20.2c0.5-1,1-1.9,1.5-2.9l14.2-26.1l-28.7-7.5c-32.8-8.6-61.6-25-85.5-48.7c-20.5-20.3-37-45.4-49.2-74.6C163.5,113.8,161.9,75,164.6,58.5z"/><path d="M343.2,492.6c-1.8,15.1,3.7,30.3,15.2,41.9c10.2,10.3,24.3,16.9,39.7,18.8c2.9,0.3,5.8,0.5,8.6,0.5l0,0c31,0,55.9-19.5,59.1-46.4c1.8-15.1-3.7-30.3-15.2-41.9c-10.2-10.3-24.3-16.9-39.7-18.8c-2.9-0.3-5.8-0.5-8.6-0.5C371.3,446.1,346.4,465.7,343.2,492.6z M402.3,492.6c1,0,2,0.1,3.1,0.2c5,0.6,9.5,2.6,12.3,5.4c1.5,1.5,2.1,2.9,2,3.6c-0.2,1.7-4.9,5.5-13,5.5l0,0c-1,0-2-0.1-3.1-0.2c-10-1.2-14.6-7.2-14.3-9C389.5,496.5,394.1,492.6,402.3,492.6z"/><path d="M593.6,553.8c2.9,0,5.8-0.2,8.6-0.5c15.4-1.8,29.5-8.5,39.7-18.8c11.5-11.5,17-26.8,15.2-41.9c-3.2-26.9-28.1-46.4-59.1-46.4c-2.9,0-5.8,0.2-8.6,0.5c-15.4,1.8-29.5,8.5-39.7,18.8c-11.5,11.5-17,26.8-15.2,41.9C537.7,534.2,562.5,553.8,593.6,553.8z M594.9,492.8c1-0.1,2.1-0.2,3.1-0.2c8.1,0,12.8,3.9,13,5.5c0.2,1.8-4.4,7.8-14.3,9c-1,0.1-2.1,0.2-3.1,0.2c-8.1,0-12.8-3.9-13-5.5C580.3,499.9,584.9,494,594.9,492.8z"/><rect x="459.5" y="775.5" width="80.7" height="46.4"/><path d="M342.5,264.1l16.4-11.8c0,0-28-83.1-51-99c-23.1-15.9-70.1-38.4-109.1-47.1C198.9,106.2,211.3,227.1,342.5,264.1z"/><path d="M800.9,106.2c-38.9,8.7-86,31.2-109.1,47.1c-23.1,15.9-51,99-51,99l16.4,11.8C788.4,227.1,800.9,106.2,800.9,106.2z"/></g></svg>